<svg viewBox="0 0 146.32 153.96" xmlns="http://www.w3.org/2000/svg"><path d="m95.2 40.08c-4 8.53.14 12.4 14.36 13.6l.43 5.21-8.3.47v14.25c.21.08.68.37.78.28 8.6-8 15.93 1.06 16.75 9.84 1.34 14.42-6.09 27.71-19.54 33.29-16.61 6.89-33.55 7.35-50.08-.39-21.15-9.91-27.22-41.08-11.28-58.55l4.39 3.13c-6.06 7-8.25 14.92-7.54 23.93 1.12 14.31 8.52 24 21.74 28.51a52.75 52.75 0 0 0 39.82-1.65c9.77-4.42 15.8-12 16.94-23 .06-.51.15-1 .18-1.54.35-6-2-10.55-5.64-10.79-4.17-.27-6.92 3.72-7 10.14v12.55h-5.55v-39.21c-.79-.5-1-.81-1.34-.83-9.32-.6-9.32-.6-9.32 8.79v31.22h-5.84c0-10.18 0-20.14 0-30.11 0-1.87.28-4.34-.75-5.47-1.74-1.92-4.38-4-6.71-4.07-1.33 0-3.9 3.71-4 5.83-.4 11.15-.19 22.33-.19 33.81h-19.62v-45.63h5.11v40h9.07v-10.09c0-5.87.08-11.73 0-17.59-.08-4.73.67-9 5.34-11.42a8.72 8.72 0 0 1 10.59 1.72l12.7-3.89c-3.46-5.52-4.19-11.59 1.09-16.9 5-5 11.22-6.6 18.06-4.12 4.05 1.46 7 4.12 6.2 8.88-.71 4.43-4.09 6-8.13 6.59-5.7.77-10.22-.93-12.72-6.79zm3-4c2.67 5.82 6 7.68 9.56 6 1.09-.5 2.63-1.89 2.53-2.68-.16-1.21-1.46-3-2.48-3.2-2.89-.44-5.89-.15-9.61-.15z"/><path d="m75.86 49.76a47 47 0 0 1 6.5.1c.69.14 1.57 1.35 1.64 2.14.07.53-1 1.47-1.71 1.81-2.39 1.19-4.62-.11-6.43-4.05z" fill="#fff"/></svg>