<svg xmlns="http://www.w3.org/2000/svg" viewBox="0 0 146.32 153.96" width="146.32" height="153.96"><path d="M94 40.78c-4 8.54.15 12.4 14.36 13.61l.44 5.2-8.31.48v14.25c.21.08.68.37.79.27 8.59-8 15.93 1.06 16.74 9.84 1.34 14.42-6.08 27.71-19.54 33.29-16.6 6.89-33.55 7.35-50.07-.39-21.13-9.91-27.21-41.07-11.27-58.54l4.39 3.12c-6.06 7-8.25 14.92-7.54 23.93 1.12 14.32 8.52 24 21.74 28.52a52.75 52.75 0 0 0 39.82-1.69c9.77-4.41 15.8-12 17-22.94 0-.52.14-1 .17-1.54.36-6-2-10.56-5.64-10.79-4.17-.27-6.92 3.71-7 10.14v12.54h-5.59V60.85c-.79-.5-1.06-.8-1.34-.82-9.36-.61-9.36-.6-9.36 8.78V100H78V69.89c0-1.87.27-4.34-.75-5.47-1.75-1.92-4.39-4-6.71-4.06-1.33 0-3.91 3.71-4 5.82-.4 11.16-.19 22.34-.19 33.81H46.71v-45.6h5.09v40h9.08V84.3c0-5.86.07-11.73 0-17.59-.08-4.73.67-9 5.34-11.42s8.28-.54 10.61 1.72l12.71-3.89c-3.45-5.52-4.18-11.59 1.09-16.9 5-5 11.22-6.59 18.07-4.12 4 1.46 7 4.12 6.2 8.88-.71 4.43-4.1 6.05-8.14 6.6-5.76.76-10.24-.93-12.76-6.8z"/></svg>